<?xml version="1.0" encoding="UTF-8" standalone="no"?>
<!-- Created with Inkscape (http://www.inkscape.org/) -->

<svg
   xmlns:dc="http://purl.org/dc/elements/1.1/"
   xmlns:cc="http://creativecommons.org/ns#"
   xmlns:rdf="http://www.w3.org/1999/02/22-rdf-syntax-ns#"
   xmlns:svg="http://www.w3.org/2000/svg"
   xmlns="http://www.w3.org/2000/svg"
   xmlns:sodipodi="http://sodipodi.sourceforge.net/DTD/sodipodi-0.dtd"
   xmlns:inkscape="http://www.inkscape.org/namespaces/inkscape"
   width="2379.9919"
   height="800"
   id="svg2"
   version="1.1"
   inkscape:version="0.48.4 r9939"
   sodipodi:docname="Очки хипстер.svg">
  <defs
     id="defs4" />
  <sodipodi:namedview
     id="base"
     pagecolor="#ffffff"
     bordercolor="#666666"
     borderopacity="1.0"
     inkscape:pageopacity="0.0"
     inkscape:pageshadow="2"
     inkscape:zoom="0.12374369"
     inkscape:cx="501.92906"
     inkscape:cy="152.28002"
     inkscape:document-units="px"
     inkscape:current-layer="layer1"
     showgrid="false"
     showguides="true"
     inkscape:guide-bbox="true"
     fit-margin-top="0"
     fit-margin-left="0"
     fit-margin-right="0"
     fit-margin-bottom="0"
     inkscape:window-width="1920"
     inkscape:window-height="1018"
     inkscape:window-x="-8"
     inkscape:window-y="-8"
     inkscape:window-maximized="1" />
  <metadata
     id="metadata7">
    <rdf:RDF>
      <cc:Work
         rdf:about="">
        <dc:format>image/svg+xml</dc:format>
        <dc:type
           rdf:resource="http://purl.org/dc/dcmitype/StillImage" />
        <dc:title />
      </cc:Work>
    </rdf:RDF>
  </metadata>
  <g
     inkscape:label="Layer 1"
     inkscape:groupmode="layer"
     id="layer1"
     transform="translate(-565.90625,20.097734)">
    <path
       style="fill:#000000;stroke:none"
       d="m 1679.9986,95.016976 c -37.1871,-1.628409 -76.1434,-10.188552 -116.1937,-32.375947 -95.949,-53.1544563 -337.8959,-82.727021 -410.0953,-82.738532 -203.37567,-0.04605 -403.59693,6.778401 -587.80335,34.894076 l 6.11546,137.777647 c 52.65083,19.24069 68.69307,55.18116 75.90361,98.56677 33.23435,199.96974 79.81876,370.02651 166.55626,439.95315 61.6004,49.66142 139.00039,92.93192 283.82912,88.49426 154.2812,-4.7273 318.1814,-47.11348 398.5839,-139.93604 70.5866,-81.49035 144.2132,-206.86429 170.8731,-343.90451 10.045,-51.63518 46.5879,-74.46468 88.1345,-74.46468 41.5465,0 78.0895,22.8295 88.1345,74.46468 26.6598,137.04022 100.2865,262.41416 170.8731,343.90451 80.4025,92.82256 244.3027,135.20874 398.5838,139.93604 144.8288,4.43766 222.2288,-38.83284 283.8292,-88.49426 86.7375,-69.92664 133.3219,-239.98341 166.5562,-439.95315 7.2106,-43.38561 23.2528,-79.32608 75.9037,-98.56677 l 6.1154,-137.777647 c -184.2064,-28.115675 -384.4277,-34.940122 -587.8033,-34.894076 -72.1995,0.01151 -314.1464,29.5840757 -410.0953,82.738532 -40.0503,22.187395 -79.0067,30.747538 -116.1937,32.375947 -50.5539,2.213767 -101.2533,2.213767 -151.8072,0 z M 1087.8785,49.330917 c 44.9273,-0.08058 90.4257,1.006101 133.4608,0.359157 37.2399,-0.559456 293.8121,-7.560028 335.2709,146.051496 39.5172,146.41756 -19.0995,332.56757 -143.8931,437.79475 -86.9534,73.3201 -429.14973,152.88711 -563.34144,-4.31679 C 757.40183,521.47341 737.94277,423.71382 728.14572,288.19289 721.93932,202.34166 744.02945,114.74507 884.26973,70.194841 939.99055,52.493918 1012.9995,49.460421 1087.8785,49.330342 z m 1179.2039,0 c 10.6607,-0.05756 18.7276,0.290089 23.3826,0.359157 43.0351,0.646944 88.5336,-0.439737 133.4609,-0.359157 74.879,0.13008 147.8879,3.163576 203.6087,20.8645 140.2403,44.550223 162.3304,132.146813 156.124,217.998043 -9.797,135.52094 -29.2561,233.28053 -121.2299,341.02665 -134.1917,157.2039 -476.388,77.63689 -563.3415,4.31679 C 1974.2937,528.30972 1915.6769,342.15971 1955.1941,195.74215 1991.4706,61.332062 2192.4583,49.71632 2267.0824,49.330917 z m -1641.10078,32.375948 104.68223,0 0,24.821555 -104.68223,0 z m 2155.15888,0 104.6822,0 0,24.821555 -104.6822,0 z"
       id="path2998"
       inkscape:connector-curvature="0"
       sodipodi:nodetypes="sscccssssssssssscccssscsssssscsscsssssscccccccccc" />
  </g>
</svg>
